<svg xmlns="http://www.w3.org/2000/svg" width="512" height="512" viewBox="0 0 40 40" fill="none">
<rect width="40" height="40" rx="4" fill="#FA541C"/>
<path fill-rule="evenodd" clip-rule="evenodd" d="M22.4053 12.5265C21.4147 10.5445 18.5874 10.5445 17.5967 12.5265L11.3283 25.0683C10.4346 26.8563 11.7343 28.96 13.7325 28.96H15.0563C17.242 28.9535 18.6305 28.4284 18.6305 27.2048C18.6305 26.6724 18.3416 26.2298 18.0135 25.7273C17.5828 25.0676 17.0848 24.3048 17.0848 23.1003C17.0848 20.9782 18.9886 20.4891 20.185 20.4891C22.2547 20.4891 23.1193 21.7292 23.1193 23.1003C23.1193 24.1112 22.6468 24.7398 22.1945 25.3415C21.7794 25.8937 21.3814 26.4232 21.3814 27.2048C21.3814 28.8173 23.1354 28.9568 23.9866 28.96H26.2695C28.2677 28.96 29.5674 26.8563 28.6738 25.0683L22.4053 12.5265Z" fill="#FFFFFF"/>
</svg>
